<?xml version="1.0" encoding="iso-8859-1"?>
<!-- Generator: Adobe Illustrator 19.0.0, SVG Export Plug-In . SVG Version: 6.00 Build 0)  -->
<svg version="1.1" id="Capa_1" xmlns="http://www.w3.org/2000/svg" xmlns:xlink="http://www.w3.org/1999/xlink" x="0px" y="0px"
	 viewBox="0 0 464 464" style="enable-background:new 0 0 464 464;" xml:space="preserve">
<linearGradient id="SVGID_1_" gradientUnits="userSpaceOnUse" x1="-66.491" y1="580.0743" x2="7.935" y2="580.0743" gradientTransform="matrix(8 0 0 -8 511 4872.5947)">
	<stop  offset="0" style="stop-color:#E93E3A"/>
	<stop  offset="0.354" style="stop-color:#ED683C"/>
	<stop  offset="0.718" style="stop-color:#F3903F"/>
	<stop  offset="1" style="stop-color:#FDC70C"/>
</linearGradient>
<path style="fill:url(#SVGID_1_);" d="M440,96.399H336v-24c0-13.255-10.745-24-24-24H24c-13.255,0-24,10.745-24,24v287.2
	c-0.001,3.235,1.947,6.153,4.936,7.392c2.99,1.239,6.432,0.553,8.72-1.736l76.856-76.856H128v119.2
	c-0.001,3.235,1.947,6.153,4.936,7.392c2.99,1.239,6.432,0.553,8.72-1.736l76.856-76.856H440c13.255,0,24-10.745,24-24v-192
	C464,107.145,453.255,96.399,440,96.399z M128,120.399v152H87.2c-2.122,0-4.156,0.844-5.656,2.344L16,340.287V72.399
	c0-4.418,3.582-8,8-8h288c4.418,0,8,3.582,8,8v24H152C138.745,96.399,128,107.145,128,120.399z M448,312.399c0,4.418-3.582,8-8,8
	H215.2c-2.122,0-4.156,0.844-5.656,2.344L144,388.287V120.399c0-4.418,3.582-8,8-8h288c4.418,0,8,3.582,8,8V312.399z"/>
<g>
	
		<linearGradient id="SVGID_2_" gradientUnits="userSpaceOnUse" x1="-66.491" y1="581.8419" x2="7.935" y2="581.8419" gradientTransform="matrix(8 0 0 -8 511 4872.5947)">
		<stop  offset="0" style="stop-color:#E93E3A"/>
		<stop  offset="0.354" style="stop-color:#ED683C"/>
		<stop  offset="0.718" style="stop-color:#F3903F"/>
		<stop  offset="1" style="stop-color:#FDC70C"/>
	</linearGradient>
	<path style="fill:url(#SVGID_2_);" d="M272,248.399v-72c0-13.255-10.745-24-24-24h-40c-13.255,0-24,10.745-24,24v72
		c0,13.255,10.745,24,24,24h40c3.564-0.014,7.078-0.834,10.28-2.4l13.32,13.32l11.312-11.312L269.6,258.679
		C271.166,255.478,271.986,251.963,272,248.399z M208,256.399c-4.418,0-8-3.582-8-8v-72c0-4.418,3.582-8,8-8h40c4.418,0,8,3.582,8,8
		v68.688l-18.344-18.344l-11.312,11.312l18.344,18.344H208z"/>
	
		<linearGradient id="SVGID_3_" gradientUnits="userSpaceOnUse" x1="-66.491" y1="582.0244" x2="7.935" y2="582.0244" gradientTransform="matrix(8 0 0 -8 511 4872.5947)">
		<stop  offset="0" style="stop-color:#E93E3A"/>
		<stop  offset="0.354" style="stop-color:#ED683C"/>
		<stop  offset="0.718" style="stop-color:#F3903F"/>
		<stop  offset="1" style="stop-color:#FDC70C"/>
	</linearGradient>
	<path style="fill:url(#SVGID_3_);" d="M288,208.399h32v16h-32V208.399z"/>
	
		<linearGradient id="SVGID_4_" gradientUnits="userSpaceOnUse" x1="-66.491" y1="582.5244" x2="7.935" y2="582.5244" gradientTransform="matrix(8 0 0 -8 511 4872.5947)">
		<stop  offset="0" style="stop-color:#E93E3A"/>
		<stop  offset="0.354" style="stop-color:#ED683C"/>
		<stop  offset="0.718" style="stop-color:#F3903F"/>
		<stop  offset="1" style="stop-color:#FDC70C"/>
	</linearGradient>
	<path style="fill:url(#SVGID_4_);" d="M408,152.399h-64c-4.418,0-8,3.582-8,8v112h16v-56h48v56h16v-112
		C416,155.981,412.418,152.399,408,152.399z M352,200.399v-32h48v32H352z"/>
	
		<linearGradient id="SVGID_5_" gradientUnits="userSpaceOnUse" x1="-66.491" y1="596.0244" x2="7.935" y2="596.0244" gradientTransform="matrix(8 0 0 -8 511 4872.5947)">
		<stop  offset="0" style="stop-color:#E93E3A"/>
		<stop  offset="0.354" style="stop-color:#ED683C"/>
		<stop  offset="0.718" style="stop-color:#F3903F"/>
		<stop  offset="1" style="stop-color:#FDC70C"/>
	</linearGradient>
	<path style="fill:url(#SVGID_5_);" d="M48,96.399h32v16H48V96.399z"/>
	
		<linearGradient id="SVGID_6_" gradientUnits="userSpaceOnUse" x1="-66.491" y1="596.0244" x2="7.935" y2="596.0244" gradientTransform="matrix(8 0 0 -8 511 4872.5947)">
		<stop  offset="0" style="stop-color:#E93E3A"/>
		<stop  offset="0.354" style="stop-color:#ED683C"/>
		<stop  offset="0.718" style="stop-color:#F3903F"/>
		<stop  offset="1" style="stop-color:#FDC70C"/>
	</linearGradient>
	<path style="fill:url(#SVGID_6_);" d="M96,96.399h24v16H96V96.399z"/>
	
		<linearGradient id="SVGID_7_" gradientUnits="userSpaceOnUse" x1="-66.491" y1="591.0244" x2="7.935" y2="591.0244" gradientTransform="matrix(8 0 0 -8 511 4872.5947)">
		<stop  offset="0" style="stop-color:#E93E3A"/>
		<stop  offset="0.354" style="stop-color:#ED683C"/>
		<stop  offset="0.718" style="stop-color:#F3903F"/>
		<stop  offset="1" style="stop-color:#FDC70C"/>
	</linearGradient>
	<path style="fill:url(#SVGID_7_);" d="M48,136.399h72v16H48V136.399z"/>
	
		<linearGradient id="SVGID_8_" gradientUnits="userSpaceOnUse" x1="-66.491" y1="586.0244" x2="7.935" y2="586.0244" gradientTransform="matrix(8 0 0 -8 511 4872.5947)">
		<stop  offset="0" style="stop-color:#E93E3A"/>
		<stop  offset="0.354" style="stop-color:#ED683C"/>
		<stop  offset="0.718" style="stop-color:#F3903F"/>
		<stop  offset="1" style="stop-color:#FDC70C"/>
	</linearGradient>
	<path style="fill:url(#SVGID_8_);" d="M48,176.399h72v16H48V176.399z"/>
	
		<linearGradient id="SVGID_9_" gradientUnits="userSpaceOnUse" x1="-66.491" y1="581.0244" x2="7.935" y2="581.0244" gradientTransform="matrix(8 0 0 -8 511 4872.5947)">
		<stop  offset="0" style="stop-color:#E93E3A"/>
		<stop  offset="0.354" style="stop-color:#ED683C"/>
		<stop  offset="0.718" style="stop-color:#F3903F"/>
		<stop  offset="1" style="stop-color:#FDC70C"/>
	</linearGradient>
	<path style="fill:url(#SVGID_9_);" d="M48,216.399h16v16H48V216.399z"/>
	
		<linearGradient id="SVGID_10_" gradientUnits="userSpaceOnUse" x1="-66.491" y1="581.0244" x2="7.935" y2="581.0244" gradientTransform="matrix(8 0 0 -8 511 4872.5947)">
		<stop  offset="0" style="stop-color:#E93E3A"/>
		<stop  offset="0.354" style="stop-color:#ED683C"/>
		<stop  offset="0.718" style="stop-color:#F3903F"/>
		<stop  offset="1" style="stop-color:#FDC70C"/>
	</linearGradient>
	<path style="fill:url(#SVGID_10_);" d="M80,216.399h40v16H80V216.399z"/>
</g>
<g>
</g>
<g>
</g>
<g>
</g>
<g>
</g>
<g>
</g>
<g>
</g>
<g>
</g>
<g>
</g>
<g>
</g>
<g>
</g>
<g>
</g>
<g>
</g>
<g>
</g>
<g>
</g>
<g>
</g>
</svg>
