<?xml version="1.0"?>
<svg xmlns="http://www.w3.org/2000/svg" xmlns:xlink="http://www.w3.org/1999/xlink" viewBox="0 0 64 64" width="512" height="512"><defs><linearGradient id="New_Gradient_Swatch" x1="32" y1="64.019" x2="32" y2="0.073" gradientUnits="userSpaceOnUse"><stop offset="0" stop-color="#e93e3a"/><stop offset="0.35" stop-color="#ed683c"/><stop offset="0.7" stop-color="#f3903f"/><stop offset="1" stop-color="#fdc70c"/></linearGradient><linearGradient id="New_Gradient_Swatch-2" x1="13.854" y1="64.019" x2="13.854" y2="0.073" xlink:href="#New_Gradient_Swatch"/><linearGradient id="New_Gradient_Swatch-3" x1="50.146" y1="64.019" x2="50.146" y2="0.073" xlink:href="#New_Gradient_Swatch"/><linearGradient id="New_Gradient_Swatch-4" x1="8.327" y1="64.019" x2="8.327" y2="0.073" xlink:href="#New_Gradient_Swatch"/><linearGradient id="New_Gradient_Swatch-5" x1="55.673" y1="64.019" x2="55.673" y2="0.073" xlink:href="#New_Gradient_Swatch"/></defs><g id="Growth-Startup"><path d="M58.375,33.208,55,32.244v-1.27A4.977,4.977,0,0,0,57,27V26a1,1,0,0,0,1-1V24a6,6,0,0,0-12,0v1a1,1,0,0,0,1,1v1a4.977,4.977,0,0,0,2,3.974v1.27l-1.148.328a18.909,18.909,0,0,0-12.584-8.286A18.253,18.253,0,0,0,33,24.043V20.25a21.954,21.954,0,0,1,2.782-4.144,4.956,4.956,0,0,0,6.582-.4c2.347-2.346,2.414-7.864,2.414-8.485a1,1,0,0,0-1-1c-.621,0-6.139.068-8.485,2.414a4.934,4.934,0,0,0-.833,5.925A24.76,24.76,0,0,0,32.6,17.006a20.175,20.175,0,0,0-2.732-3.841,7.006,7.006,0,0,0-1.158-8.357C25.673,1.774,17.6,1.687,16.687,1.687a1,1,0,0,0-1,1c0,.91.087,8.986,3.121,12.02a7,7,0,0,0,9.817.074A17.808,17.808,0,0,1,31,18.254v5.784a18.909,18.909,0,0,0-14.853,8.533L15,32.244v-1.27A4.977,4.977,0,0,0,17,27V26a1,1,0,0,0,1-1V24A6,6,0,0,0,6,24v1a1,1,0,0,0,1,1v1a4.977,4.977,0,0,0,2,3.974v1.27l-3.374.964A5.021,5.021,0,0,0,2,38.02V42a1,1,0,0,0,1,1H13A19,19,0,0,0,29.9,61.885,20.012,20.012,0,0,0,32,62c.35,0,.71-.01,1.054-.031A19.03,19.03,0,0,0,51,43H61a1,1,0,0,0,1-1V38.02A5.021,5.021,0,0,0,58.375,33.208ZM52,20a4,4,0,0,1,4,3.972,1,1,0,0,1-.66-.526l-.445-.892a1,1,0,0,0-1.45-.386l-1.488.992a4.987,4.987,0,0,1-2.773.84H48A4,4,0,0,1,52,20Zm-2.816,6a6.976,6.976,0,0,0,3.882-1.176l.548-.365A2.956,2.956,0,0,0,55,25.709V27a3,3,0,0,1-6,0V26ZM52,32a5,5,0,0,0,1-.1V33a.991.991,0,0,0,.345.74L52,34.75l-1.345-1.01A.991.991,0,0,0,51,33V31.9A5,5,0,0,0,52,32ZM30.606,35.919,37,38.659V41a1,1,0,0,0,.4.8L41,44.5v3.167L38.2,51.4a1,1,0,0,0,.093,1.307l3.886,3.887A16.681,16.681,0,0,1,34,59.872V57a1,1,0,0,0,.447-.1l2-1A1,1,0,0,0,37,55V52a1,1,0,0,0-.293-.707l-2-2A1,1,0,0,0,34,49H30a1,1,0,0,0-.707.293l-2,2A1,1,0,0,0,27,52v3a1.006,1.006,0,0,0,.168.555L29,58.3v1.43a16.966,16.966,0,0,1-6.608-2.711l1.315-1.315A1,1,0,0,0,24,55V51.162l.832-2.495,4.683-2.81A1,1,0,0,0,30,45V41a1,1,0,0,0-.293-.707L27,37.586V34a1,1,0,0,0-.105-.447l-2-4a1,1,0,0,0-.271-.334L23.476,28.3A16.817,16.817,0,0,1,32,26c.438,0,.871.023,1.3.056l-3.114,4.363A1,1,0,0,0,30,31v4A1,1,0,0,0,30.606,35.919Zm6.1-25.869c1.221-1.221,4.189-1.666,6.032-1.789-.123,1.843-.568,4.811-1.789,6.032a3,3,0,0,1-3.819.346,20.433,20.433,0,0,1,3.385-2.782l-1.031-1.714a21.541,21.541,0,0,0-3.532,2.839,2.916,2.916,0,0,1,.754-2.932ZM20.222,13.293c-1.815-1.815-2.393-6.844-2.511-9.582,2.738.118,7.767.7,9.582,2.511a5.007,5.007,0,0,1,1.09,5.437,23.6,23.6,0,0,0-4.936-3.554L22.553,9.9a22.05,22.05,0,0,1,4.688,3.441,4.991,4.991,0,0,1-7.019-.043ZM12,20a4,4,0,0,1,4,3.973,1,1,0,0,1-.66-.527l-.445-.892a1,1,0,0,0-1.45-.386l-1.488.992A4.987,4.987,0,0,1,9.183,24H8A4,4,0,0,1,12,20ZM9.183,26a6.977,6.977,0,0,0,3.883-1.176l.548-.365A2.956,2.956,0,0,0,15,25.709V27a3,3,0,0,1-6,0V26ZM12,32a5,5,0,0,0,1-.1V33a.991.991,0,0,0,.345.74L12,34.75l-1.345-1.01A.991.991,0,0,0,11,33V31.9A5,5,0,0,0,12,32ZM8,41V38H6v3H4V38.02a3.014,3.014,0,0,1,2.175-2.889l2.175-.62L11.4,36.8a1,1,0,0,0,1.2,0l3.05-2.289,2.176.621A3.012,3.012,0,0,1,20,38.02V41H18V38H16v3Zm7,2h6a1,1,0,0,0,1-1V38.02a5.022,5.022,0,0,0-3.625-4.812l-.209-.059a16.6,16.6,0,0,1,3.581-3.67L23.2,30.644,25,34.236V38a1,1,0,0,0,.293.707L28,41.414v3.02l-4.515,2.709a1,1,0,0,0-.434.541l-1,3A1,1,0,0,0,22,51v3.586l-1.183,1.183A16.894,16.894,0,0,1,15,43ZM31,59.957V58a1.006,1.006,0,0,0-.168-.555L29,54.7V52.414L30.414,51h3.172L35,52.414v1.968L33.764,55H33a1,1,0,0,0-1,1v3.987C31.673,59.987,31.336,59.977,31,59.957Zm12.7-4.671-3.38-3.38L42.8,48.6A1,1,0,0,0,43,48V44a1,1,0,0,0-.4-.8L39,40.5V38a1,1,0,0,0-.606-.919L32,34.341V31.32l3.518-4.928A16.9,16.9,0,0,1,45.831,33.15l-.205.058A5.02,5.02,0,0,0,42,38.02V42a1,1,0,0,0,1,1h6A16.886,16.886,0,0,1,43.7,55.286ZM60,41H58V38H56v3H48V38H46v3H44V38.02a3.015,3.015,0,0,1,2.176-2.889l2.174-.62L51.4,36.8a1,1,0,0,0,1.2,0l3.049-2.289,2.175.621A3.013,3.013,0,0,1,60,38.02Z" style="fill:url(#New_Gradient_Swatch)"/><path d="M11.087,44.927,9.1,45.108a22.832,22.832,0,0,0,8.242,15.613l1.276-1.54A20.847,20.847,0,0,1,11.087,44.927Z" style="fill:url(#New_Gradient_Swatch-2)"/><path d="M52.911,44.938a20.841,20.841,0,0,1-7.523,14.243l1.275,1.54a22.825,22.825,0,0,0,8.24-15.6Z" style="fill:url(#New_Gradient_Swatch-3)"/><path d="M5.081,45.1A26.917,26.917,0,0,0,9.94,58.572l1.633-1.155a24.915,24.915,0,0,1-4.5-12.468Z" style="fill:url(#New_Gradient_Swatch-4)"/><path d="M52.427,57.418l1.633,1.154a26.924,26.924,0,0,0,4.86-13.478l-1.994-.153A24.928,24.928,0,0,1,52.427,57.418Z" style="fill:url(#New_Gradient_Swatch-5)"/></g></svg>
