<?xml version="1.0" encoding="iso-8859-1"?>
<!-- Generator: Adobe Illustrator 19.0.0, SVG Export Plug-In . SVG Version: 6.00 Build 0)  -->
<svg version="1.1" id="Capa_1" xmlns="http://www.w3.org/2000/svg" xmlns:xlink="http://www.w3.org/1999/xlink" x="0px" y="0px"
	 viewBox="0 0 479.201 479.201" style="enable-background:new 0 0 479.201 479.201;" xml:space="preserve">
<linearGradient id="SVGID_1_" gradientUnits="userSpaceOnUse" x1="-59.171" y1="580.7257" x2="18.012" y2="580.7257" gradientTransform="matrix(8 0 0 -8 455.0002 4937.4063)">
	<stop  offset="0" style="stop-color:#E93E3A"/>
	<stop  offset="0.355" style="stop-color:#ED683C"/>
	<stop  offset="0.714" style="stop-color:#F3903F"/>
	<stop  offset="1" style="stop-color:#FDC70C"/>
</linearGradient>
<path style="fill:url(#SVGID_1_);" d="M416,263.601h16v56h-16V263.601z"/>
<g>
	
		<linearGradient id="SVGID_2_" gradientUnits="userSpaceOnUse" x1="-59.171" y1="587.2257" x2="18.012" y2="587.2257" gradientTransform="matrix(8 0 0 -8 455.0002 4937.4063)">
		<stop  offset="0" style="stop-color:#E93E3A"/>
		<stop  offset="0.355" style="stop-color:#ED683C"/>
		<stop  offset="0.714" style="stop-color:#F3903F"/>
		<stop  offset="1" style="stop-color:#FDC70C"/>
	</linearGradient>
	<path style="fill:url(#SVGID_2_);" d="M23.848,335.601c-4.333-0.004-7.844-3.516-7.848-7.848V55.449
		c0.004-4.333,3.515-7.844,7.848-7.848H408.16c4.33,0,7.84,3.51,7.84,7.84h16c-0.018-13.162-10.686-23.827-23.848-23.84H23.848
		C10.684,31.618,0.018,42.285,0,55.449v272.304c0.018,13.164,10.684,23.83,23.848,23.848H152v48h-8c-4.418,0-8,3.582-8,8v24h-32v16
		h224v-16h-32v-24c0-4.418-3.582-8-8-8h-8v-48h64v-16H23.848z M168,351.601h96v48h-96V351.601z M280,431.601H152v-16h128V431.601z"
		/>
	
		<linearGradient id="SVGID_3_" gradientUnits="userSpaceOnUse" x1="-59.171" y1="582.2257" x2="18.012" y2="582.2257" gradientTransform="matrix(8 0 0 -8 455.0002 4937.4063)">
		<stop  offset="0" style="stop-color:#E93E3A"/>
		<stop  offset="0.355" style="stop-color:#ED683C"/>
		<stop  offset="0.714" style="stop-color:#F3903F"/>
		<stop  offset="1" style="stop-color:#FDC70C"/>
	</linearGradient>
	<path style="fill:url(#SVGID_3_);" d="M32,271.601h264v16H32V271.601z"/>
	
		<linearGradient id="SVGID_4_" gradientUnits="userSpaceOnUse" x1="-59.171" y1="597.7257" x2="18.012" y2="597.7257" gradientTransform="matrix(8 0 0 -8 455.0002 4937.4063)">
		<stop  offset="0" style="stop-color:#E93E3A"/>
		<stop  offset="0.355" style="stop-color:#ED683C"/>
		<stop  offset="0.714" style="stop-color:#F3903F"/>
		<stop  offset="1" style="stop-color:#FDC70C"/>
	</linearGradient>
	<path style="fill:url(#SVGID_4_);" d="M304,71.601H40c-4.418,0-8,3.582-8,8v160h16v-152h256V71.601z"/>
	
		<linearGradient id="SVGID_5_" gradientUnits="userSpaceOnUse" x1="-59.171" y1="585.2257" x2="18.012" y2="585.2257" gradientTransform="matrix(8 0 0 -8 455.0002 4937.4063)">
		<stop  offset="0" style="stop-color:#E93E3A"/>
		<stop  offset="0.355" style="stop-color:#ED683C"/>
		<stop  offset="0.714" style="stop-color:#F3903F"/>
		<stop  offset="1" style="stop-color:#FDC70C"/>
	</linearGradient>
	<path style="fill:url(#SVGID_5_);" d="M384,63.601c-53.017,0.445-95.636,43.784-95.192,96.802
		c0.413,49.298,38.1,90.269,87.192,94.79v49.88c-9.555,3.378-15.958,12.394-16,22.528v96c0,13.255,10.745,24,24,24s24-10.745,24-24
		l0,0v-96c-0.042-10.134-6.445-19.15-16-22.528v-49.88c52.796-4.863,91.653-51.604,86.791-104.4
		C474.269,101.701,433.298,64.014,384,63.601L384,63.601z M392,423.601c0,4.418-3.582,8-8,8s-8-3.582-8-8v-96c0-4.418,3.582-8,8-8
		s8,3.582,8,8V423.601z M384,239.601c-44.183,0-80-35.817-80-80s35.817-80,80-80s80,35.817,80,80
		C463.951,203.763,428.163,239.552,384,239.601z"/>
	
		<linearGradient id="SVGID_6_" gradientUnits="userSpaceOnUse" x1="-59.171" y1="600.7257" x2="18.012" y2="600.7257" gradientTransform="matrix(8 0 0 -8 455.0002 4937.4063)">
		<stop  offset="0" style="stop-color:#E93E3A"/>
		<stop  offset="0.355" style="stop-color:#ED683C"/>
		<stop  offset="0.714" style="stop-color:#F3903F"/>
		<stop  offset="1" style="stop-color:#FDC70C"/>
	</linearGradient>
	<path style="fill:url(#SVGID_6_);" d="M384,95.601c-35.33,0.04-63.96,28.67-64,64c0,4.418,3.582,8,8,8s8-3.582,8-8
		c0.026-26.499,21.501-47.974,48-48c4.418,0,8-3.582,8-8S388.418,95.601,384,95.601z"/>
	
		<linearGradient id="SVGID_7_" gradientUnits="userSpaceOnUse" x1="-59.171" y1="601.7257" x2="18.012" y2="601.7257" gradientTransform="matrix(8 0 0 -8 455.0002 4937.4063)">
		<stop  offset="0" style="stop-color:#E93E3A"/>
		<stop  offset="0.355" style="stop-color:#ED683C"/>
		<stop  offset="0.714" style="stop-color:#F3903F"/>
		<stop  offset="1" style="stop-color:#FDC70C"/>
	</linearGradient>
	<path style="fill:url(#SVGID_7_);" d="M64,111.601v32h16v-24h24v-16H72C67.582,103.601,64,107.182,64,111.601z"/>
</g>
<g>
</g>
<g>
</g>
<g>
</g>
<g>
</g>
<g>
</g>
<g>
</g>
<g>
</g>
<g>
</g>
<g>
</g>
<g>
</g>
<g>
</g>
<g>
</g>
<g>
</g>
<g>
</g>
<g>
</g>
</svg>
